<?xml version="1.0" standalone="no"?><!DOCTYPE svg PUBLIC "-//W3C//DTD SVG 1.1//EN" "http://www.w3.org/Graphics/SVG/1.1/DTD/svg11.dtd"><svg width="100%" height="100%" viewBox="0 0 128 128" version="1.1" xmlns="http://www.w3.org/2000/svg" xmlns:xlink="http://www.w3.org/1999/xlink" xml:space="preserve" style="fill-rule:evenodd;clip-rule:evenodd;stroke-linejoin:round;stroke-miterlimit:1.41421;"><g><path d="M155.156,121.711l-34.404,-5.82l-51.378,-2.613l-54.886,2.393l-33.201,6.04l0,-137.471l173.869,0l0,137.471Z" style="fill:#fff;fill-rule:nonzero;"/><path d="M46.659,111.662l0.022,-68.226l-10.547,-0.001l10.549,-10.3l0,-25.36l2.375,0l0,-6.49l3.563,0l0,6.49l2.376,0l0,-6.49l3.563,0l0,6.49l2.376,0l0,11.445l18.369,-17.934c0,0 43.172,41.523 43.172,41.562l-10.178,0l-0.022,68.814l-65.618,0Z" style="fill:#4cc9e3;fill-rule:nonzero;"/><path d="M-6.553,116.415l0.022,-51.045l-8.859,-0.001l8.861,-8.651l0,-21.303l1.995,0l0,-5.452l2.993,0l0,5.452l1.996,0l0,-5.452l2.993,0l0,5.452l1.996,0l0,9.614l15.43,-15.065c0,0 36.265,34.879 36.265,34.912l-8.549,0l-0.023,46.786l-55.12,4.753Z" style="fill:#41ebca;fill-rule:nonzero;"/><path d="M76.7,111.662l0.023,-38.496l-9.134,-0.001l9.135,-8.919l0,-21.961l2.057,0l0,-5.621l3.085,0l0,5.621l2.058,0l0,-5.621l3.086,0l0,5.621l2.057,0l0,9.911l15.908,-15.531c0,0 37.386,35.958 37.386,35.992l-8.815,0l-0.023,44.148l-56.823,-5.143Z" style="fill:#159fab;fill-rule:nonzero;"/><path d="M18.149,114.774l0.027,-29.642l-5.557,-0.001l5.558,-5.425l0,-13.36l1.251,0l0,-3.421l1.877,0l0,3.421l1.252,0l0,-3.421l1.878,0l0,3.421l1.251,0l0,6.029l9.677,-9.449c0,0 22.743,21.875 22.743,21.896l-5.361,0l-0.027,26.84l-34.569,3.112Z" style="fill:#1590ab;fill-rule:nonzero;"/><path d="M67.979,111.662l0.023,-17.649l-4.025,0l4.025,-3.929l0,-9.674l0.906,0l0,-2.477l1.359,0l0,2.477l0.907,0l0,-2.477l1.36,0l0,2.477l0.905,0l0,4.365l7.008,-6.841c0,0 16.469,15.84 16.469,15.855l-3.882,0l-0.023,17.873l-25.032,0Z" style="fill:#f2f4f6;fill-rule:nonzero;"/><rect x="110.476" y="73.189" width="15.829" height="14.877" style="fill:#fff;fill-rule:nonzero;"/><rect x="112.059" y="74.677" width="12.663" height="11.901" style="fill:#097295;fill-rule:nonzero;"/><path d="M149.063,116.069l-95.674,-0.252c-23.995,-0.166 -47.997,1.582 -72.009,5.838c-0.054,0.01 -0.093,0.057 -0.093,0.112c0,1.589 0,22.592 0,22.592l167.776,0l0,-28.29Z" style="fill:#fff;"/><g><path d="M160.203,122.807c-22.648,-4.576 -55.82,-7.462 -92.706,-7.462c-36.927,0 -69.899,1.936 -92.549,6.52l-0.157,3.381c12.537,-5.347 61.571,-7.605 106.037,-3.933c40.428,3.338 77.054,12.062 79.569,18.528l-0.194,-17.034Z" style="fill:#007f9e;"/><path d="M156.152,120.501c-22.518,-4.837 -55.499,-7.887 -92.175,-7.887c-36.715,0 -69.655,3.058 -92.174,7.903l0,2.005c22.519,-4.846 55.289,-7.146 92.002,-6.715c36.832,0.431 75.759,7.082 93.363,15.309c0,0 -1.016,-10.615 -1.016,-10.615Z" style="fill:#4cc9e3;"/><path d="M156.152,117.963c-22.518,-4.837 -55.499,-6.899 -92.175,-6.899c-36.715,0 -69.655,4.206 -92.174,9.052l0,1.166c22.519,-4.846 55.459,-8.708 92.174,-8.708c36.676,0 71.444,5.95 93.191,11.562c-0.979,2.197 -1.016,-6.173 -1.016,-6.173Z" style="fill:#a4d8e3;"/></g><rect x="117.599" y="74.677" width="1.583" height="11.901" style="fill:#fff;fill-rule:nonzero;"/><rect x="112.06" y="79.888" width="12.663" height="1.487" style="fill:#fff;fill-rule:nonzero;"/><rect x="-0.185" y="65.899" width="14.884" height="13.988" style="fill:#fff;fill-rule:nonzero;"/><rect x="1.303" y="67.298" width="11.907" height="11.19" style="fill:#097295;fill-rule:nonzero;"/><rect x="6.513" y="67.298" width="1.488" height="11.19" style="fill:#fff;fill-rule:nonzero;"/><rect x="1.305" y="72.197" width="11.907" height="1.399" style="fill:#fff;fill-rule:nonzero;"/><rect x="54.785" y="43.152" width="18.04" height="16.955" style="fill:#fff;fill-rule:nonzero;"/><rect x="56.589" y="44.848" width="14.432" height="13.564" style="fill:#097295;fill-rule:nonzero;"/><rect x="62.903" y="44.848" width="1.804" height="13.564" style="fill:#fff;fill-rule:nonzero;"/><rect x="56.59" y="50.786" width="14.432" height="1.695" style="fill:#fff;fill-rule:nonzero;"/><rect x="38.601" y="85.223" width="8.863" height="8.329" style="fill:#fff;fill-rule:nonzero;"/><rect x="39.488" y="86.056" width="7.09" height="6.664" style="fill:#097295;fill-rule:nonzero;"/><rect x="42.589" y="86.056" width="0.886" height="6.664" style="fill:#fff;fill-rule:nonzero;"/><rect x="39.488" y="88.974" width="7.09" height="0.833" style="fill:#fff;fill-rule:nonzero;"/><rect x="82.131" y="93.553" width="7.179" height="6.747" style="fill:#fff;fill-rule:nonzero;"/><rect x="82.849" y="94.227" width="5.743" height="5.397" style="fill:#097295;fill-rule:nonzero;"/><rect x="85.361" y="94.227" width="0.718" height="5.397" style="fill:#fff;fill-rule:nonzero;"/><rect x="82.849" y="96.59" width="5.743" height="0.675" style="fill:#fff;fill-rule:nonzero;"/></g></svg>